<svg xmlns="http://www.w3.org/2000/svg" viewBox="0 0 24 24" width="24" height="24" color="#000000" fill="none">
    <path d="M15.9351 12.6258C15.6807 13.8374 14.3271 14.7077 11.6198 16.4481C8.67532 18.3411 7.20301 19.2876 6.01047 18.9229C5.60659 18.7994 5.23459 18.5823 4.92227 18.2876C4 17.4178 4 15.6118 4 12C4 8.38816 4 6.58224 4.92227 5.71235C5.23459 5.41773 5.60659 5.20057 6.01047 5.07707C7.20301 4.71243 8.67532 5.6589 11.6198 7.55186C14.3271 9.29233 15.6807 10.1626 15.9351 11.3742C16.0216 11.7865 16.0216 12.2135 15.9351 12.6258Z" stroke="#FFFFFF" stroke-width="1.5" stroke-linejoin="round" />
    <path d="M20 4L20 20" stroke="#141B34" stroke-width="1.5" stroke-linecap="round" />
</svg>